<svg width="16" height="16" viewBox="0 0 16 16" fill="none" xmlns="http://www.w3.org/2000/svg">
<path d="M8 9.33333C10.206 9.33333 12 7.53933 12 5.33333V4C12 1.794 10.206 0 8 0C5.794 0 4 1.794 4 4V5.33333C4 7.53933 5.794 9.33333 8 9.33333Z" fill="#DFDFDF"/>
<path d="M14 13.3334C12.3873 13.3334 11.0427 12.1881 10.734 10.6667H4.66667C2.094 10.6667 0 12.7601 0 15.3334V16.0001H16V15.3334C16 14.4934 15.774 13.7067 15.3833 13.0247C14.9613 13.2187 14.4953 13.3334 14 13.3334Z" fill="#DFDFDF"/>
<path d="M14.6667 8H13.3333V9.33333H12V10.6667H13.3333V12H14.6667V10.6667H16V9.33333H14.6667V8Z" fill="#DFDFDF"/>
</svg>
