<svg width="16" height="16" viewBox="0 0 16 16" fill="none" xmlns="http://www.w3.org/2000/svg">
<path d="M14.6667 1.33398H6.66667C6.26667 1.33398 6 1.60065 6 2.00065V3.33398C6 3.73398 6.26667 4.00065 6.66667 4.00065H14.6667C15.0667 4.00065 15.3333 3.73398 15.3333 3.33398V2.00065C15.3333 1.60065 15.0667 1.33398 14.6667 1.33398Z" fill="#9E9DB6"/>
<path d="M14.6667 6.66699H6.66667C6.26667 6.66699 6 6.93366 6 7.33366V8.66699C6 9.06699 6.26667 9.33366 6.66667 9.33366H14.6667C15.0667 9.33366 15.3333 9.06699 15.3333 8.66699V7.33366C15.3333 6.93366 15.0667 6.66699 14.6667 6.66699Z" fill="#9E9DB6"/>
<path d="M14.6667 12H6.66667C6.26667 12 6 12.2667 6 12.6667V14C6 14.4 6.26667 14.6667 6.66667 14.6667H14.6667C15.0667 14.6667 15.3333 14.4 15.3333 14V12.6667C15.3333 12.2667 15.0667 12 14.6667 12Z" fill="#9E9DB6"/>
<path d="M4.00033 0.666992H1.33366C0.933659 0.666992 0.666992 0.933659 0.666992 1.33366V4.00033C0.666992 4.40033 0.933659 4.66699 1.33366 4.66699H4.00033C4.40033 4.66699 4.66699 4.40033 4.66699 4.00033V1.33366C4.66699 0.933659 4.40033 0.666992 4.00033 0.666992Z" fill="#9E9DB6"/>
<path d="M4.00033 6H1.33366C0.933659 6 0.666992 6.26667 0.666992 6.66667V9.33333C0.666992 9.73333 0.933659 10 1.33366 10H4.00033C4.40033 10 4.66699 9.73333 4.66699 9.33333V6.66667C4.66699 6.26667 4.40033 6 4.00033 6Z" fill="#9E9DB6"/>
<path d="M4.00033 11.334H1.33366C0.933659 11.334 0.666992 11.6007 0.666992 12.0007V14.6673C0.666992 15.0673 0.933659 15.334 1.33366 15.334H4.00033C4.40033 15.334 4.66699 15.0673 4.66699 14.6673V12.0007C4.66699 11.6007 4.40033 11.334 4.00033 11.334Z" fill="#9E9DB6"/>
</svg>
