<svg width="16" height="16" viewBox="0 0 16 16" fill="none" xmlns="http://www.w3.org/2000/svg">
<g id="icon/editor/functions-glyph-24">
<path id="icon/editor/functions_24px" d="M11 2.66699H5.04C4.46667 2.66699 4 3.13366 4 3.70699C4 3.89366 4.08 4.07366 4.21333 4.20033L8.33333 8.00033L4.21333 11.8003C4.08 11.927 4 12.107 4 12.2937C4 12.867 4.46667 13.3337 5.04 13.3337H11C11.5533 13.3337 12 12.887 12 12.3337C12 11.7803 11.5533 11.3337 11 11.3337H7.33333L9.72667 8.94033C10.2467 8.42033 10.2467 7.57366 9.72667 7.05366L7.33333 4.66699H11C11.5533 4.66699 12 4.22033 12 3.66699C12 3.11366 11.5533 2.66699 11 2.66699Z" fill="#2F80ED"/>
</g>
</svg>
