<svg width="24" height="24" viewBox="0 0 24 24" fill="none" xmlns="http://www.w3.org/2000/svg">
<g clip-path="url(#clip0)">
<path d="M15 0.75V6.75H21" stroke="#2F80ED" stroke-width="0.8" stroke-miterlimit="10"/>
<path d="M21 12V6.75L15 0.75H3V12" stroke="#2F80ED" stroke-width="0.8" stroke-miterlimit="10" stroke-linecap="square"/>
<path d="M3 19.875V23.25H21V19.875" stroke="#2F80ED" stroke-width="0.8" stroke-miterlimit="10" stroke-linecap="square"/>
<path d="M22.875 12H1.125" stroke="#2F80ED" stroke-width="0.8" stroke-miterlimit="10"/>
<path d="M3 10.125L1.125 12V19.875H22.875V12L21 10.125" stroke="#2F80ED" stroke-width="0.8" stroke-miterlimit="10"/>
<path d="M13.6504 18H12.3115L11.4766 16.6611L10.6504 18H9.34082L10.7617 15.8086L9.42578 13.7168H10.709L11.4824 15.041L12.2266 13.7168H13.5479L12.1914 15.8994L13.6504 18Z" fill="var(--component__main_dark)"/>
<path d="M13.6504 18V18.8H15.1801L14.3075 17.5436L13.6504 18ZM12.3115 18L11.6327 18.4233L11.8676 18.8H12.3115V18ZM11.4766 16.6611L12.1554 16.2378L11.473 15.1435L10.7957 16.241L11.4766 16.6611ZM10.6504 18V18.8H11.0968L11.3312 18.4201L10.6504 18ZM9.34082 18L8.66957 17.5648L7.86865 18.8H9.34082V18ZM10.7617 15.8086L11.433 16.2438L11.713 15.8119L11.4359 15.378L10.7617 15.8086ZM9.42578 13.7168V12.9168H7.96562L8.75155 14.1474L9.42578 13.7168ZM10.709 13.7168L11.3998 13.3133L11.1682 12.9168H10.709V13.7168ZM11.4824 15.041L10.7916 15.4445L11.4958 16.6502L12.1798 15.4329L11.4824 15.041ZM12.2266 13.7168V12.9168H11.7585L11.5291 13.3249L12.2266 13.7168ZM13.5479 13.7168L14.2273 14.1391L14.9869 12.9168H13.5479V13.7168ZM12.1914 15.8994L11.5119 15.4771L11.2343 15.9238L11.5343 16.3558L12.1914 15.8994ZM13.6504 17.2H12.3115V18.8H13.6504V17.2ZM12.9903 17.5767L12.1554 16.2378L10.7977 17.0845L11.6327 18.4233L12.9903 17.5767ZM10.7957 16.241L9.96958 17.5799L11.3312 18.4201L12.1574 17.0812L10.7957 16.241ZM10.6504 17.2H9.34082V18.8H10.6504V17.2ZM10.0121 18.4352L11.433 16.2438L10.0905 15.3734L8.66957 17.5648L10.0121 18.4352ZM11.4359 15.378L10.1 13.2862L8.75155 14.1474L10.0875 16.2392L11.4359 15.378ZM9.42578 14.5168H10.709V12.9168H9.42578V14.5168ZM10.0182 14.1203L10.7916 15.4445L12.1732 14.6375L11.3998 13.3133L10.0182 14.1203ZM12.1798 15.4329L12.924 14.1087L11.5291 13.3249L10.785 14.6491L12.1798 15.4329ZM12.2266 14.5168H13.5479V12.9168H12.2266V14.5168ZM12.8684 13.2945L11.5119 15.4771L12.8709 16.3217L14.2273 14.1391L12.8684 13.2945ZM11.5343 16.3558L12.9933 18.4564L14.3075 17.5436L12.8485 15.443L11.5343 16.3558Z" fill="#2F80ED"/>
</g>
<defs>
<clipPath id="clip0">
<rect width="24" height="24" fill="white"/>
</clipPath>
</defs>
</svg>
