<svg width="12" height="12" viewBox="0 0 12 12" fill="none" xmlns="http://www.w3.org/2000/svg">
<g clip-path="url(#clip0)">
<path d="M6.7 7.29995C6.49448 7.44066 6.24884 7.51085 6 7.49995C5.75116 7.51085 5.50552 7.44066 5.3 7.29995L0 4.44995V9.49995C0 9.89778 0.158035 10.2793 0.43934 10.5606C0.720644 10.8419 1.10218 11 1.5 11H10.5C10.8978 11 11.2794 10.8419 11.5607 10.5606C11.842 10.2793 12 9.89778 12 9.49995V4.44995L6.7 7.29995Z" fill="#DFDFDF"/>
<path d="M10.5 1H1.50001C1.10218 1 0.720652 1.15804 0.439347 1.43934C0.158043 1.72064 7.3722e-06 2.10218 7.3722e-06 2.5V3C-0.000470385 3.09016 0.0222803 3.17893 0.0660674 3.25774C0.109855 3.33656 0.173202 3.40277 0.250007 3.45L5.75001 6.45C5.82678 6.49042 5.9136 6.50778 6.00001 6.5C6.08642 6.50778 6.17324 6.49042 6.25001 6.45L11.75 3.45C11.8268 3.40277 11.8902 3.33656 11.9339 3.25774C11.9777 3.17893 12.0005 3.09016 12 3V2.5C12 2.10218 11.842 1.72064 11.5607 1.43934C11.2794 1.15804 10.8978 1 10.5 1Z" fill="#DFDFDF"/>
</g>
<defs>
<clipPath id="clip0">
<rect width="12" height="12" fill="white"/>
</clipPath>
</defs>
</svg>
