<svg width="12" height="12" viewBox="0 0 12 12" fill="none" xmlns="http://www.w3.org/2000/svg">
<g clip-path="url(#clip0)">
<path d="M10.5 4.99996H9V3.00496C9.00666 2.21547 8.69975 1.45559 8.14666 0.892186C7.59356 0.328776 6.83948 0.00788299 6.05 -3.71104e-05H6.005C5.61372 -0.00465721 5.22538 0.0680912 4.8623 0.214028C4.49922 0.359964 4.16855 0.576211 3.88931 0.850343C3.61007 1.12447 3.38775 1.45109 3.23513 1.81141C3.08252 2.17173 3.00261 2.55866 3 2.94996V4.99996H1.5C1.36739 4.99996 1.24021 5.05264 1.14645 5.14641C1.05268 5.24018 1 5.36735 1 5.49996V11.5C1 11.6326 1.05268 11.7597 1.14645 11.8535C1.24021 11.9473 1.36739 12 1.5 12H10.5C10.6326 12 10.7598 11.9473 10.8536 11.8535C10.9473 11.7597 11 11.6326 11 11.5V5.49996C11 5.36735 10.9473 5.24018 10.8536 5.14641C10.7598 5.05264 10.6326 4.99996 10.5 4.99996ZM6 9.49996C5.80222 9.49996 5.60888 9.44131 5.44443 9.33143C5.27998 9.22155 5.15181 9.06537 5.07612 8.88265C5.00043 8.69992 4.98063 8.49885 5.01921 8.30487C5.0578 8.11089 5.15304 7.93271 5.29289 7.79286C5.43275 7.653 5.61093 7.55776 5.80491 7.51918C5.99889 7.48059 6.19996 7.5004 6.38268 7.57608C6.56541 7.65177 6.72159 7.77994 6.83147 7.94439C6.94135 8.10884 7 8.30218 7 8.49996C7 8.76518 6.89464 9.01953 6.70711 9.20707C6.51957 9.39461 6.26522 9.49996 6 9.49996ZM8 4.99996H4V2.95496C4.00619 2.43414 4.2175 1.93677 4.58809 1.57077C4.95868 1.20477 5.45864 0.999663 5.9795 0.999963H6.045C6.56939 1.00616 7.06987 1.2203 7.43646 1.59532C7.80304 1.97034 8.00574 2.47557 8 2.99996V4.99996Z" fill="var(--main__content__color)"/>
</g>
<defs>
<clipPath id="clip0">
<rect width="12" height="12" fill="var(--main__content__color)"/>
</clipPath>
</defs>
</svg>
