<svg width="16" height="16" viewBox="0 0 16 16" fill="none" xmlns="http://www.w3.org/2000/svg">
<path d="M9.33333 6H7.33333V4H6V6H4V7.33333H6V9.33333H7.33333V7.33333H9.33333V6Z" fill="#9E9DB6"/>
<path d="M15.1383 12.8623L11.8883 9.6123C12.6041 8.34611 12.8368 6.86343 12.5433 5.43884C12.2499 4.01424 11.4501 2.74425 10.2922 1.86405C9.13423 0.983844 7.69655 0.553066 6.24537 0.651489C4.7942 0.749911 3.42785 1.37087 2.39936 2.39936C1.37087 3.42785 0.749911 4.7942 0.651489 6.24537C0.553066 7.69655 0.983844 9.13423 1.86405 10.2922C2.74425 11.4501 4.01424 12.2499 5.43884 12.5433C6.86343 12.8368 8.34611 12.6041 9.6123 11.8883L12.8623 15.1383C12.9873 15.2633 13.1569 15.3335 13.3336 15.3335C13.5104 15.3335 13.68 15.2633 13.805 15.1383L15.1383 13.805C15.2633 13.68 15.3335 13.5104 15.3335 13.3336C15.3335 13.1569 15.2633 12.9873 15.1383 12.8623ZM2.0003 6.66697C2.0003 5.74399 2.274 4.84174 2.78678 4.07431C3.29956 3.30688 4.02839 2.70874 4.88111 2.35553C5.73384 2.00232 6.67215 1.90991 7.57739 2.08997C8.48264 2.27004 9.31416 2.71449 9.9668 3.36714C10.6194 4.01978 11.0639 4.8513 11.244 5.75655C11.424 6.66179 11.3316 7.60011 10.9784 8.45283C10.6252 9.30555 10.0271 10.0344 9.25963 10.5472C8.4922 11.0599 7.58995 11.3336 6.66697 11.3336C5.42973 11.3322 4.24356 10.8401 3.3687 9.96524C2.49383 9.09038 2.00172 7.90421 2.0003 6.66697Z" fill="#9E9DB6"/>
</svg>
