<svg width="12" height="12" viewBox="0 0 12 12" fill="none" xmlns="http://www.w3.org/2000/svg">
<path d="M7.76107 7.23543L6.59407 8.38543L3.61457 5.40593L4.76457 4.23893C4.83411 4.16819 4.88104 4.07835 4.89938 3.98086C4.91773 3.88336 4.90665 3.78262 4.86757 3.69143L3.67007 0.896434C3.62273 0.786218 3.53735 0.696693 3.4295 0.64419C3.32165 0.591687 3.19852 0.579707 3.08257 0.610434L0.882567 1.19143C0.77265 1.21987 0.675685 1.28488 0.607621 1.37575C0.539557 1.46662 0.504447 1.57795 0.508067 1.69143C0.647986 4.24838 1.71114 6.66765 3.50007 8.49993C5.33294 10.2891 7.75299 11.3521 10.3106 11.4914C10.424 11.4951 10.5354 11.4599 10.6263 11.3919C10.7171 11.3238 10.7821 11.2269 10.8106 11.1169L11.3916 8.91693C11.4223 8.80098 11.4103 8.67785 11.3578 8.57C11.3053 8.46215 11.2158 8.37677 11.1056 8.32943L8.31057 7.13193C8.21909 7.09248 8.1179 7.08125 8.02 7.09969C7.92209 7.11813 7.83193 7.1654 7.76107 7.23543Z" fill="#DFDFDF"/>
</svg>
