<svg width="16" height="16" viewBox="0 0 16 16" fill="none" xmlns="http://www.w3.org/2000/svg">
<path d="M8.00008 2C9.32608 2 10.5821 2.43333 11.6201 3.222L9.21741 5.484L15.3287 6.13933L15.0414 0L12.6047 2.29467C11.3047 1.24133 9.69675 0.666667 8.00008 0.666667C3.95675 0.666667 0.666748 3.95667 0.666748 8H2.00008C2.00008 4.69133 4.69141 2 8.00008 2Z" fill="rgb(158, 157, 182)"/>
<path d="M8.00005 14C6.67405 14 5.41805 13.5667 4.38005 12.778L6.78272 10.516L0.671387 9.86067L0.95872 16L3.39539 13.7053C4.69539 14.7587 6.30339 15.3333 8.00005 15.3333C12.0434 15.3333 15.3334 12.0433 15.3334 8H14.0001C14.0001 11.3087 11.3087 14 8.00005 14Z" fill="rgb(158, 157, 182)"/>
</svg>
